<svg xmlns="http://www.w3.org/2000/svg" xmlns:xlink="http://www.w3.org/1999/xlink" width="500" zoomAndPan="magnify" viewBox="0 0 375 149.999998" height="200" preserveAspectRatio="xMidYMid meet" version="1.0"><defs><g/><clipPath id="8d4c8367cb"><path d="M 17.855469 16.277344 L 357.144531 16.277344 L 357.144531 121.652344 L 17.855469 121.652344 Z M 17.855469 16.277344 " clip-rule="nonzero"/></clipPath><clipPath id="4299f029d5"><path d="M 56.351562 108.769531 L 318.648438 108.769531 L 318.648438 133.722656 L 56.351562 133.722656 Z M 56.351562 108.769531 " clip-rule="nonzero"/></clipPath></defs><rect x="-37.5" width="450" fill="#ffffff" y="-15" height="179.999997" fill-opacity="1"/><rect x="-37.5" width="450" fill="#ffffff" y="-15" height="179.999997" fill-opacity="1"/><g clip-path="url(#8d4c8367cb)"><path stroke-linecap="butt" transform="matrix(0.754013, 0, 0, 0.754013, 17.856275, 16.278306)" fill="none" stroke-linejoin="miter" d="M -0.00106955 -0.00127629 L 449.976396 -0.00127629 L 449.976396 139.750872 L -0.00106955 139.750872 Z M -0.00106955 -0.00127629 " stroke="#060606" stroke-width="1.989354" stroke-opacity="1" stroke-miterlimit="4"/></g><g fill="#060606" fill-opacity="1"><g transform="translate(26.567179, 82.857698)"><g><path d="M 30.359375 -31.125 C 29.359375 -30.96875 28.625 -30.707031 28.15625 -30.34375 C 27.6875 -29.988281 27.367188 -29.414062 27.203125 -28.625 C 27.035156 -27.84375 26.953125 -26.6875 26.953125 -25.15625 L 26.953125 -13.15625 C 26.953125 -8.84375 26.335938 -5.648438 25.109375 -3.578125 C 24.296875 -2.242188 23.117188 -1.207031 21.578125 -0.46875 C 20.035156 0.269531 18.148438 0.640625 15.921875 0.640625 C 12.421875 0.640625 9.707031 -0.113281 7.78125 -1.625 C 6.394531 -2.738281 5.457031 -4.144531 4.96875 -5.84375 C 4.488281 -7.550781 4.25 -9.945312 4.25 -13.03125 L 4.25 -27.234375 C 4.25 -28.378906 4.164062 -29.207031 4 -29.71875 C 3.832031 -30.226562 3.515625 -30.570312 3.046875 -30.75 C 2.585938 -30.9375 1.859375 -31.0625 0.859375 -31.125 L 0.859375 -32.03125 C 2.398438 -31.9375 4.753906 -31.890625 7.921875 -31.890625 C 11.054688 -31.890625 13.453125 -31.9375 15.109375 -32.03125 L 15.109375 -31.125 C 14.023438 -31.0625 13.234375 -30.9375 12.734375 -30.75 C 12.234375 -30.570312 11.890625 -30.226562 11.703125 -29.71875 C 11.523438 -29.207031 11.4375 -28.378906 11.4375 -27.234375 L 11.4375 -10.171875 C 11.4375 -7.003906 11.894531 -4.675781 12.8125 -3.1875 C 13.738281 -1.695312 15.363281 -0.953125 17.6875 -0.953125 C 20.695312 -0.953125 22.820312 -1.96875 24.0625 -4 C 25.300781 -6.039062 25.921875 -8.929688 25.921875 -12.671875 L 25.921875 -24.609375 C 25.921875 -26.359375 25.8125 -27.65625 25.59375 -28.5 C 25.382812 -29.34375 24.976562 -29.953125 24.375 -30.328125 C 23.78125 -30.703125 22.832031 -30.96875 21.53125 -31.125 L 21.53125 -32.03125 C 22.675781 -31.9375 24.304688 -31.890625 26.421875 -31.890625 C 28.109375 -31.890625 29.421875 -31.9375 30.359375 -32.03125 Z M 30.359375 -31.125 "/></g></g></g><g fill="#060606" fill-opacity="1"><g transform="translate(56.380846, 82.857698)"><g><path d="M 17.90625 -24.015625 C 20.195312 -24.015625 21.859375 -23.425781 22.890625 -22.25 C 23.398438 -21.675781 23.757812 -20.9375 23.96875 -20.03125 C 24.1875 -19.132812 24.296875 -17.914062 24.296875 -16.375 L 24.296875 -4.203125 C 24.296875 -2.972656 24.515625 -2.125 24.953125 -1.65625 C 25.390625 -1.1875 26.132812 -0.953125 27.1875 -0.953125 L 27.1875 0 C 24.164062 -0.125 22.175781 -0.1875 21.21875 -0.1875 C 20.3125 -0.1875 18.347656 -0.125 15.328125 0 L 15.328125 -0.953125 C 16.234375 -0.953125 16.867188 -1.1875 17.234375 -1.65625 C 17.597656 -2.125 17.78125 -2.972656 17.78125 -4.203125 L 17.78125 -18.28125 C 17.78125 -19.507812 17.578125 -20.441406 17.171875 -21.078125 C 16.765625 -21.710938 16.03125 -22.03125 14.96875 -22.03125 C 13.738281 -22.03125 12.6875 -21.523438 11.8125 -20.515625 C 10.9375 -19.503906 10.5 -18.257812 10.5 -16.78125 L 10.5 -4.203125 C 10.5 -2.972656 10.675781 -2.125 11.03125 -1.65625 C 11.394531 -1.1875 12.03125 -0.953125 12.9375 -0.953125 L 12.9375 0 C 10.164062 -0.125 8.296875 -0.1875 7.328125 -0.1875 C 6.421875 -0.1875 4.335938 -0.125 1.078125 0 L 1.078125 -0.953125 C 2.171875 -0.953125 2.925781 -1.1875 3.34375 -1.65625 C 3.769531 -2.125 3.984375 -2.972656 3.984375 -4.203125 L 3.984375 -18.453125 C 3.984375 -19.835938 3.769531 -20.847656 3.34375 -21.484375 C 2.925781 -22.117188 2.171875 -22.4375 1.078125 -22.4375 L 1.078125 -23.390625 C 2.046875 -23.296875 2.984375 -23.25 3.890625 -23.25 C 6.578125 -23.25 8.78125 -23.460938 10.5 -23.890625 L 10.5 -19.8125 C 11.851562 -22.613281 14.320312 -24.015625 17.90625 -24.015625 Z M 17.90625 -24.015625 "/></g></g></g><g fill="#060606" fill-opacity="1"><g transform="translate(82.801453, 82.857698)"><g><path d="M 6.953125 -35.0625 C 8.222656 -35.0625 9.226562 -34.75 9.96875 -34.125 C 10.707031 -33.507812 11.078125 -32.660156 11.078125 -31.578125 C 11.078125 -30.484375 10.707031 -29.628906 9.96875 -29.015625 C 9.226562 -28.398438 8.222656 -28.09375 6.953125 -28.09375 C 5.691406 -28.09375 4.691406 -28.398438 3.953125 -29.015625 C 3.210938 -29.628906 2.84375 -30.484375 2.84375 -31.578125 C 2.84375 -32.660156 3.210938 -33.507812 3.953125 -34.125 C 4.691406 -34.75 5.691406 -35.0625 6.953125 -35.0625 Z M 10.5 -4.203125 C 10.5 -2.972656 10.71875 -2.125 11.15625 -1.65625 C 11.59375 -1.1875 12.335938 -0.953125 13.390625 -0.953125 L 13.390625 0 C 10.367188 -0.125 8.363281 -0.1875 7.375 -0.1875 C 6.4375 -0.1875 4.335938 -0.125 1.078125 0 L 1.078125 -0.953125 C 2.171875 -0.953125 2.925781 -1.1875 3.34375 -1.65625 C 3.769531 -2.125 3.984375 -2.972656 3.984375 -4.203125 L 3.984375 -18.453125 C 3.984375 -19.835938 3.769531 -20.847656 3.34375 -21.484375 C 2.925781 -22.117188 2.171875 -22.4375 1.078125 -22.4375 L 1.078125 -23.390625 C 2.046875 -23.296875 2.984375 -23.25 3.890625 -23.25 C 6.578125 -23.25 8.78125 -23.460938 10.5 -23.890625 Z M 10.5 -4.203125 "/></g></g></g><g fill="#060606" fill-opacity="1"><g transform="translate(95.69507, 82.857698)"><g><path d="M 12.75 -24.015625 C 16.21875 -24.015625 18.929688 -23.023438 20.890625 -21.046875 C 22.859375 -19.078125 23.84375 -15.953125 23.84375 -11.671875 C 23.84375 -7.390625 22.859375 -4.265625 20.890625 -2.296875 C 18.929688 -0.335938 16.21875 0.640625 12.75 0.640625 C 9.3125 0.640625 6.601562 -0.335938 4.625 -2.296875 C 2.65625 -4.265625 1.671875 -7.390625 1.671875 -11.671875 C 1.671875 -15.953125 2.65625 -19.078125 4.625 -21.046875 C 6.601562 -23.023438 9.3125 -24.015625 12.75 -24.015625 Z M 12.75 -23.109375 C 11.457031 -23.109375 10.425781 -22.164062 9.65625 -20.28125 C 8.882812 -18.394531 8.5 -15.523438 8.5 -11.671875 C 8.5 -7.804688 8.882812 -4.9375 9.65625 -3.0625 C 10.425781 -1.195312 11.457031 -0.265625 12.75 -0.265625 C 14.082031 -0.265625 15.125 -1.191406 15.875 -3.046875 C 16.632812 -4.898438 17.015625 -7.773438 17.015625 -11.671875 C 17.015625 -15.554688 16.628906 -18.429688 15.859375 -20.296875 C 15.085938 -22.171875 14.050781 -23.109375 12.75 -23.109375 Z M 12.75 -23.109375 "/></g></g></g><g fill="#060606" fill-opacity="1"><g transform="translate(119.898872, 82.857698)"><g><path d="M 17.90625 -24.015625 C 20.195312 -24.015625 21.859375 -23.425781 22.890625 -22.25 C 23.398438 -21.675781 23.757812 -20.9375 23.96875 -20.03125 C 24.1875 -19.132812 24.296875 -17.914062 24.296875 -16.375 L 24.296875 -4.203125 C 24.296875 -2.972656 24.515625 -2.125 24.953125 -1.65625 C 25.390625 -1.1875 26.132812 -0.953125 27.1875 -0.953125 L 27.1875 0 C 24.164062 -0.125 22.175781 -0.1875 21.21875 -0.1875 C 20.3125 -0.1875 18.347656 -0.125 15.328125 0 L 15.328125 -0.953125 C 16.234375 -0.953125 16.867188 -1.1875 17.234375 -1.65625 C 17.597656 -2.125 17.78125 -2.972656 17.78125 -4.203125 L 17.78125 -18.28125 C 17.78125 -19.507812 17.578125 -20.441406 17.171875 -21.078125 C 16.765625 -21.710938 16.03125 -22.03125 14.96875 -22.03125 C 13.738281 -22.03125 12.6875 -21.523438 11.8125 -20.515625 C 10.9375 -19.503906 10.5 -18.257812 10.5 -16.78125 L 10.5 -4.203125 C 10.5 -2.972656 10.675781 -2.125 11.03125 -1.65625 C 11.394531 -1.1875 12.03125 -0.953125 12.9375 -0.953125 L 12.9375 0 C 10.164062 -0.125 8.296875 -0.1875 7.328125 -0.1875 C 6.421875 -0.1875 4.335938 -0.125 1.078125 0 L 1.078125 -0.953125 C 2.171875 -0.953125 2.925781 -1.1875 3.34375 -1.65625 C 3.769531 -2.125 3.984375 -2.972656 3.984375 -4.203125 L 3.984375 -18.453125 C 3.984375 -19.835938 3.769531 -20.847656 3.34375 -21.484375 C 2.925781 -22.117188 2.171875 -22.4375 1.078125 -22.4375 L 1.078125 -23.390625 C 2.046875 -23.296875 2.984375 -23.25 3.890625 -23.25 C 6.578125 -23.25 8.78125 -23.460938 10.5 -23.890625 L 10.5 -19.8125 C 11.851562 -22.613281 14.320312 -24.015625 17.90625 -24.015625 Z M 17.90625 -24.015625 "/></g></g></g><g fill="#060606" fill-opacity="1"><g transform="translate(146.319475, 82.857698)"><g/></g></g><g fill="#060606" fill-opacity="1"><g transform="translate(155.503342, 82.857698)"><g><path d="M 12.125 -12.9375 L 12.125 -5.0625 C 12.125 -3.851562 12.25 -2.96875 12.5 -2.40625 C 12.757812 -1.851562 13.210938 -1.488281 13.859375 -1.3125 C 14.515625 -1.132812 15.550781 -1.03125 16.96875 -1 L 16.96875 0 C 13.257812 -0.09375 10.5 -0.140625 8.6875 -0.140625 C 7.175781 -0.140625 5.273438 -0.109375 2.984375 -0.046875 L 1.53125 0 L 1.53125 -0.90625 C 2.53125 -0.96875 3.265625 -1.085938 3.734375 -1.265625 C 4.203125 -1.441406 4.519531 -1.785156 4.6875 -2.296875 C 4.851562 -2.816406 4.9375 -3.648438 4.9375 -4.796875 L 4.9375 -27.234375 C 4.9375 -28.378906 4.851562 -29.207031 4.6875 -29.71875 C 4.519531 -30.226562 4.203125 -30.570312 3.734375 -30.75 C 3.265625 -30.9375 2.53125 -31.0625 1.53125 -31.125 L 1.53125 -32.03125 C 3.070312 -31.9375 5.363281 -31.890625 8.40625 -31.890625 L 13.4375 -31.9375 C 14.039062 -31.96875 14.734375 -31.984375 15.515625 -31.984375 C 19.585938 -31.984375 22.691406 -31.175781 24.828125 -29.5625 C 26.972656 -27.945312 28.046875 -25.78125 28.046875 -23.0625 C 28.046875 -21.40625 27.625 -19.816406 26.78125 -18.296875 C 25.9375 -16.773438 24.507812 -15.5 22.5 -14.46875 C 20.5 -13.445312 17.835938 -12.9375 14.515625 -12.9375 Z M 14.921875 -31.125 C 14.109375 -31.125 13.515625 -31.015625 13.140625 -30.796875 C 12.765625 -30.585938 12.5 -30.210938 12.34375 -29.671875 C 12.195312 -29.128906 12.125 -28.316406 12.125 -27.234375 L 12.125 -13.84375 L 14.0625 -13.84375 C 16.507812 -13.84375 18.195312 -14.625 19.125 -16.1875 C 20.0625 -17.757812 20.53125 -19.890625 20.53125 -22.578125 C 20.53125 -25.492188 20.097656 -27.644531 19.234375 -29.03125 C 18.378906 -30.425781 16.941406 -31.125 14.921875 -31.125 Z M 14.921875 -31.125 "/></g></g></g><g fill="#060606" fill-opacity="1"><g transform="translate(183.145443, 82.857698)"><g><path d="M 10.265625 -19.8125 C 11.617188 -22.613281 14.078125 -24.015625 17.640625 -24.015625 C 19.992188 -24.015625 21.65625 -23.425781 22.625 -22.25 C 23.132812 -21.675781 23.5 -20.929688 23.71875 -20.015625 C 23.945312 -19.097656 24.0625 -17.882812 24.0625 -16.375 L 24.0625 -4.203125 C 24.0625 -2.972656 24.269531 -2.125 24.6875 -1.65625 C 25.113281 -1.1875 25.867188 -0.953125 26.953125 -0.953125 L 26.953125 0 C 23.816406 -0.125 21.828125 -0.1875 20.984375 -0.1875 C 19.960938 -0.1875 18.003906 -0.125 15.109375 0 L 15.109375 -0.953125 C 16.015625 -0.953125 16.644531 -1.1875 17 -1.65625 C 17.363281 -2.125 17.546875 -2.972656 17.546875 -4.203125 L 17.546875 -18.28125 C 17.546875 -19.507812 17.34375 -20.441406 16.9375 -21.078125 C 16.53125 -21.710938 15.800781 -22.03125 14.75 -22.03125 C 13.476562 -22.03125 12.410156 -21.539062 11.546875 -20.5625 C 10.691406 -19.582031 10.265625 -18.335938 10.265625 -16.828125 L 10.265625 -4.203125 C 10.265625 -2.972656 10.445312 -2.125 10.8125 -1.65625 C 11.175781 -1.1875 11.804688 -0.953125 12.703125 -0.953125 L 12.703125 0 C 9.816406 -0.125 7.953125 -0.1875 7.109375 -0.1875 C 6.078125 -0.1875 3.992188 -0.125 0.859375 0 L 0.859375 -0.953125 C 1.910156 -0.953125 2.65625 -1.1875 3.09375 -1.65625 C 3.53125 -2.125 3.75 -2.972656 3.75 -4.203125 L 3.75 -29.9375 C 3.75 -31.332031 3.53125 -32.34375 3.09375 -32.96875 C 2.65625 -33.601562 1.910156 -33.921875 0.859375 -33.921875 L 0.859375 -34.875 C 1.828125 -34.78125 2.757812 -34.734375 3.65625 -34.734375 C 6.28125 -34.734375 8.484375 -34.945312 10.265625 -35.375 Z M 10.265625 -19.8125 "/></g></g></g><g fill="#060606" fill-opacity="1"><g transform="translate(209.294601, 82.857698)"><g><path d="M 12.75 -24.015625 C 16.21875 -24.015625 18.929688 -23.023438 20.890625 -21.046875 C 22.859375 -19.078125 23.84375 -15.953125 23.84375 -11.671875 C 23.84375 -7.390625 22.859375 -4.265625 20.890625 -2.296875 C 18.929688 -0.335938 16.21875 0.640625 12.75 0.640625 C 9.3125 0.640625 6.601562 -0.335938 4.625 -2.296875 C 2.65625 -4.265625 1.671875 -7.390625 1.671875 -11.671875 C 1.671875 -15.953125 2.65625 -19.078125 4.625 -21.046875 C 6.601562 -23.023438 9.3125 -24.015625 12.75 -24.015625 Z M 12.75 -23.109375 C 11.457031 -23.109375 10.425781 -22.164062 9.65625 -20.28125 C 8.882812 -18.394531 8.5 -15.523438 8.5 -11.671875 C 8.5 -7.804688 8.882812 -4.9375 9.65625 -3.0625 C 10.425781 -1.195312 11.457031 -0.265625 12.75 -0.265625 C 14.082031 -0.265625 15.125 -1.191406 15.875 -3.046875 C 16.632812 -4.898438 17.015625 -7.773438 17.015625 -11.671875 C 17.015625 -15.554688 16.628906 -18.429688 15.859375 -20.296875 C 15.085938 -22.171875 14.050781 -23.109375 12.75 -23.109375 Z M 12.75 -23.109375 "/></g></g></g><g fill="#060606" fill-opacity="1"><g transform="translate(233.498403, 82.857698)"><g><path d="M 10.265625 -23.390625 L 15.609375 -23.390625 L 15.609375 -22.484375 L 10.265625 -22.484375 L 10.265625 -4.203125 C 10.265625 -3.296875 10.421875 -2.65625 10.734375 -2.28125 C 11.054688 -1.90625 11.566406 -1.71875 12.265625 -1.71875 C 13.554688 -1.71875 14.578125 -2.625 15.328125 -4.4375 L 16.109375 -4.03125 C 14.960938 -0.914062 12.894531 0.640625 9.90625 0.640625 C 7.914062 0.640625 6.410156 0.125 5.390625 -0.90625 C 4.753906 -1.539062 4.320312 -2.332031 4.09375 -3.28125 C 3.863281 -4.226562 3.75 -5.53125 3.75 -7.1875 L 3.75 -22.484375 L -0.046875 -22.484375 L -0.046875 -23.390625 L 3.75 -23.390625 L 3.75 -29.359375 C 6.257812 -29.359375 8.429688 -29.835938 10.265625 -30.796875 Z M 10.265625 -23.390625 "/></g></g></g><g fill="#060606" fill-opacity="1"><g transform="translate(248.065926, 82.857698)"><g><path d="M 12.75 -24.015625 C 16.21875 -24.015625 18.929688 -23.023438 20.890625 -21.046875 C 22.859375 -19.078125 23.84375 -15.953125 23.84375 -11.671875 C 23.84375 -7.390625 22.859375 -4.265625 20.890625 -2.296875 C 18.929688 -0.335938 16.21875 0.640625 12.75 0.640625 C 9.3125 0.640625 6.601562 -0.335938 4.625 -2.296875 C 2.65625 -4.265625 1.671875 -7.390625 1.671875 -11.671875 C 1.671875 -15.953125 2.65625 -19.078125 4.625 -21.046875 C 6.601562 -23.023438 9.3125 -24.015625 12.75 -24.015625 Z M 12.75 -23.109375 C 11.457031 -23.109375 10.425781 -22.164062 9.65625 -20.28125 C 8.882812 -18.394531 8.5 -15.523438 8.5 -11.671875 C 8.5 -7.804688 8.882812 -4.9375 9.65625 -3.0625 C 10.425781 -1.195312 11.457031 -0.265625 12.75 -0.265625 C 14.082031 -0.265625 15.125 -1.191406 15.875 -3.046875 C 16.632812 -4.898438 17.015625 -7.773438 17.015625 -11.671875 C 17.015625 -15.554688 16.628906 -18.429688 15.859375 -20.296875 C 15.085938 -22.171875 14.050781 -23.109375 12.75 -23.109375 Z M 12.75 -23.109375 "/></g></g></g><g fill="#060606" fill-opacity="1"><g transform="translate(272.269739, 82.857698)"><g/></g></g><g fill="#060606" fill-opacity="1"><g transform="translate(281.453618, 82.857698)"><g><path d="M 17.953125 -32.65625 C 19.765625 -32.65625 21.300781 -32.398438 22.5625 -31.890625 C 23.832031 -31.378906 25.070312 -30.65625 26.28125 -29.71875 C 26.613281 -29.445312 26.898438 -29.3125 27.140625 -29.3125 C 27.742188 -29.3125 28.132812 -30.21875 28.3125 -32.03125 L 29.359375 -32.03125 C 29.234375 -29.976562 29.171875 -26.328125 29.171875 -21.078125 L 28.140625 -21.078125 C 27.867188 -23.304688 27.503906 -25.007812 27.046875 -26.1875 C 26.597656 -27.363281 25.832031 -28.390625 24.75 -29.265625 C 23.988281 -29.992188 23.109375 -30.546875 22.109375 -30.921875 C 21.117188 -31.296875 20.082031 -31.484375 19 -31.484375 C 15.957031 -31.484375 13.695312 -30 12.21875 -27.03125 C 10.738281 -24.0625 10 -20.359375 10 -15.921875 C 10 -11.515625 10.765625 -7.832031 12.296875 -4.875 C 13.835938 -1.925781 16.128906 -0.453125 19.171875 -0.453125 C 20.203125 -0.453125 21.222656 -0.640625 22.234375 -1.015625 C 23.242188 -1.390625 24.09375 -1.941406 24.78125 -2.671875 C 25.90625 -3.515625 26.6875 -4.566406 27.125 -5.828125 C 27.5625 -7.097656 27.898438 -8.957031 28.140625 -11.40625 L 29.171875 -11.40625 C 29.171875 -5.945312 29.234375 -2.144531 29.359375 0 L 28.3125 0 C 28.226562 -0.96875 28.101562 -1.65625 27.9375 -2.0625 C 27.769531 -2.46875 27.535156 -2.671875 27.234375 -2.671875 C 26.992188 -2.671875 26.675781 -2.550781 26.28125 -2.3125 C 24.925781 -1.34375 23.628906 -0.609375 22.390625 -0.109375 C 21.148438 0.390625 19.65625 0.640625 17.90625 0.640625 C 14.71875 0.640625 11.921875 -0.00390625 9.515625 -1.296875 C 7.117188 -2.597656 5.253906 -4.476562 3.921875 -6.9375 C 2.597656 -9.394531 1.9375 -12.328125 1.9375 -15.734375 C 1.9375 -19.054688 2.613281 -22 3.96875 -24.5625 C 5.332031 -27.125 7.226562 -29.113281 9.65625 -30.53125 C 12.082031 -31.945312 14.847656 -32.65625 17.953125 -32.65625 Z M 17.953125 -32.65625 "/></g></g></g><g fill="#060606" fill-opacity="1"><g transform="translate(311.991139, 82.857698)"><g><path d="M 12.75 -24.015625 C 16.21875 -24.015625 18.929688 -23.023438 20.890625 -21.046875 C 22.859375 -19.078125 23.84375 -15.953125 23.84375 -11.671875 C 23.84375 -7.390625 22.859375 -4.265625 20.890625 -2.296875 C 18.929688 -0.335938 16.21875 0.640625 12.75 0.640625 C 9.3125 0.640625 6.601562 -0.335938 4.625 -2.296875 C 2.65625 -4.265625 1.671875 -7.390625 1.671875 -11.671875 C 1.671875 -15.953125 2.65625 -19.078125 4.625 -21.046875 C 6.601562 -23.023438 9.3125 -24.015625 12.75 -24.015625 Z M 12.75 -23.109375 C 11.457031 -23.109375 10.425781 -22.164062 9.65625 -20.28125 C 8.882812 -18.394531 8.5 -15.523438 8.5 -11.671875 C 8.5 -7.804688 8.882812 -4.9375 9.65625 -3.0625 C 10.425781 -1.195312 11.457031 -0.265625 12.75 -0.265625 C 14.082031 -0.265625 15.125 -1.191406 15.875 -3.046875 C 16.632812 -4.898438 17.015625 -7.773438 17.015625 -11.671875 C 17.015625 -15.554688 16.628906 -18.429688 15.859375 -20.296875 C 15.085938 -22.171875 14.050781 -23.109375 12.75 -23.109375 Z M 12.75 -23.109375 "/></g></g></g><g fill="#060606" fill-opacity="1"><g transform="translate(336.194953, 82.857698)"><g><path d="M 6.109375 -6.328125 C 7.285156 -6.328125 8.21875 -6.019531 8.90625 -5.40625 C 9.601562 -4.789062 9.953125 -3.9375 9.953125 -2.84375 C 9.953125 -1.757812 9.601562 -0.90625 8.90625 -0.28125 C 8.21875 0.332031 7.285156 0.640625 6.109375 0.640625 C 4.929688 0.640625 3.992188 0.332031 3.296875 -0.28125 C 2.609375 -0.90625 2.265625 -1.757812 2.265625 -2.84375 C 2.265625 -3.9375 2.609375 -4.789062 3.296875 -5.40625 C 3.992188 -6.019531 4.929688 -6.328125 6.109375 -6.328125 Z M 6.109375 -6.328125 "/></g></g></g><g clip-path="url(#4299f029d5)"><path fill="#ffffff" d="M 56.351562 108.769531 L 318.628906 108.769531 L 318.628906 133.722656 L 56.351562 133.722656 Z M 56.351562 108.769531 " fill-opacity="1" fill-rule="nonzero"/></g><g fill="#060606" fill-opacity="1"><g transform="translate(65.448777, 124.909914)"><g><path d="M 1 -7.625 L 4.046875 -7.625 C 5.003906 -7.625 5.742188 -7.394531 6.265625 -6.9375 C 6.796875 -6.488281 7.0625 -5.847656 7.0625 -5.015625 C 7.0625 -4.148438 6.796875 -3.476562 6.265625 -3 C 5.742188 -2.53125 5.003906 -2.296875 4.046875 -2.296875 L 2.28125 -2.296875 L 2.28125 0 L 1 0 Z M 2.28125 -6.46875 L 2.28125 -3.453125 L 3.984375 -3.453125 C 5.210938 -3.453125 5.828125 -3.960938 5.828125 -4.984375 C 5.828125 -5.972656 5.210938 -6.46875 3.984375 -6.46875 Z M 2.28125 -6.46875 "/></g></g></g><g fill="#060606" fill-opacity="1"><g transform="translate(78.764112, 124.909914)"><g><path d="M 7.609375 0 L 6.328125 0 L 6.328125 -3.15625 L 2.28125 -3.15625 L 2.28125 0 L 1 0 L 1 -7.625 L 2.28125 -7.625 L 2.28125 -4.3125 L 6.328125 -4.3125 L 6.328125 -7.625 L 7.609375 -7.625 Z M 7.609375 0 "/></g></g></g><g fill="#060606" fill-opacity="1"><g transform="translate(93.363995, 124.909914)"><g><path d="M 1.53125 -6.546875 C 2.3125 -7.285156 3.269531 -7.65625 4.40625 -7.65625 C 5.550781 -7.65625 6.507812 -7.285156 7.28125 -6.546875 C 8.0625 -5.816406 8.453125 -4.90625 8.453125 -3.8125 C 8.453125 -2.71875 8.0625 -1.800781 7.28125 -1.0625 C 6.507812 -0.320312 5.550781 0.046875 4.40625 0.046875 C 3.269531 0.046875 2.3125 -0.320312 1.53125 -1.0625 C 0.757812 -1.800781 0.375 -2.71875 0.375 -3.8125 C 0.375 -4.90625 0.757812 -5.816406 1.53125 -6.546875 Z M 4.421875 -6.5 C 3.660156 -6.5 3.007812 -6.238281 2.46875 -5.71875 C 1.9375 -5.195312 1.671875 -4.554688 1.671875 -3.796875 C 1.671875 -3.046875 1.941406 -2.40625 2.484375 -1.875 C 3.023438 -1.351562 3.671875 -1.09375 4.421875 -1.09375 C 5.171875 -1.09375 5.8125 -1.351562 6.34375 -1.875 C 6.875 -2.40625 7.140625 -3.046875 7.140625 -3.796875 C 7.140625 -4.554688 6.875 -5.195312 6.34375 -5.71875 C 5.8125 -6.238281 5.171875 -6.5 4.421875 -6.5 Z M 4.421875 -6.5 "/></g></g></g><g fill="#060606" fill-opacity="1"><g transform="translate(108.17071, 124.909914)"><g><path d="M 6.203125 -6.46875 L 3.796875 -6.46875 L 3.796875 0 L 2.5 0 L 2.5 -6.46875 L 0.09375 -6.46875 L 0.09375 -7.625 L 6.203125 -7.625 Z M 6.203125 -6.46875 "/></g></g></g><g fill="#060606" fill-opacity="1"><g transform="translate(120.46276, 124.909914)"><g><path d="M 1.53125 -6.546875 C 2.3125 -7.285156 3.269531 -7.65625 4.40625 -7.65625 C 5.550781 -7.65625 6.507812 -7.285156 7.28125 -6.546875 C 8.0625 -5.816406 8.453125 -4.90625 8.453125 -3.8125 C 8.453125 -2.71875 8.0625 -1.800781 7.28125 -1.0625 C 6.507812 -0.320312 5.550781 0.046875 4.40625 0.046875 C 3.269531 0.046875 2.3125 -0.320312 1.53125 -1.0625 C 0.757812 -1.800781 0.375 -2.71875 0.375 -3.8125 C 0.375 -4.90625 0.757812 -5.816406 1.53125 -6.546875 Z M 4.421875 -6.5 C 3.660156 -6.5 3.007812 -6.238281 2.46875 -5.71875 C 1.9375 -5.195312 1.671875 -4.554688 1.671875 -3.796875 C 1.671875 -3.046875 1.941406 -2.40625 2.484375 -1.875 C 3.023438 -1.351562 3.671875 -1.09375 4.421875 -1.09375 C 5.171875 -1.09375 5.8125 -1.351562 6.34375 -1.875 C 6.875 -2.40625 7.140625 -3.046875 7.140625 -3.796875 C 7.140625 -4.554688 6.875 -5.195312 6.34375 -5.71875 C 5.8125 -6.238281 5.171875 -6.5 4.421875 -6.5 Z M 4.421875 -6.5 "/></g></g></g><g fill="#060606" fill-opacity="1"><g transform="translate(135.269472, 124.909914)"><g/></g></g><g fill="#060606" fill-opacity="1"><g transform="translate(144.067099, 124.909914)"><g><path d="M 1 -7.625 L 4.3125 -7.625 C 5.101562 -7.625 5.726562 -7.453125 6.1875 -7.109375 C 6.644531 -6.773438 6.875 -6.3125 6.875 -5.71875 C 6.875 -5.289062 6.753906 -4.925781 6.515625 -4.625 C 6.273438 -4.320312 5.945312 -4.117188 5.53125 -4.015625 C 6.039062 -3.929688 6.441406 -3.71875 6.734375 -3.375 C 7.023438 -3.03125 7.171875 -2.601562 7.171875 -2.09375 C 7.171875 -1.4375 6.921875 -0.921875 6.421875 -0.546875 C 5.929688 -0.179688 5.253906 0 4.390625 0 L 1 0 Z M 2.28125 -6.484375 L 2.28125 -4.46875 L 4.25 -4.46875 C 4.65625 -4.46875 4.972656 -4.554688 5.203125 -4.734375 C 5.429688 -4.921875 5.546875 -5.171875 5.546875 -5.484375 C 5.546875 -5.804688 5.429688 -6.050781 5.203125 -6.21875 C 4.984375 -6.394531 4.664062 -6.484375 4.25 -6.484375 Z M 2.28125 -3.328125 L 2.28125 -1.140625 L 4.25 -1.140625 C 4.757812 -1.140625 5.148438 -1.234375 5.421875 -1.421875 C 5.703125 -1.617188 5.84375 -1.894531 5.84375 -2.25 C 5.84375 -2.582031 5.703125 -2.84375 5.421875 -3.03125 C 5.140625 -3.226562 4.75 -3.328125 4.25 -3.328125 Z M 2.28125 -3.328125 "/></g></g></g><g fill="#060606" fill-opacity="1"><g transform="translate(157.741664, 124.909914)"><g><path d="M 1.53125 -6.546875 C 2.3125 -7.285156 3.269531 -7.65625 4.40625 -7.65625 C 5.550781 -7.65625 6.507812 -7.285156 7.28125 -6.546875 C 8.0625 -5.816406 8.453125 -4.90625 8.453125 -3.8125 C 8.453125 -2.71875 8.0625 -1.800781 7.28125 -1.0625 C 6.507812 -0.320312 5.550781 0.046875 4.40625 0.046875 C 3.269531 0.046875 2.3125 -0.320312 1.53125 -1.0625 C 0.757812 -1.800781 0.375 -2.71875 0.375 -3.8125 C 0.375 -4.90625 0.757812 -5.816406 1.53125 -6.546875 Z M 4.421875 -6.5 C 3.660156 -6.5 3.007812 -6.238281 2.46875 -5.71875 C 1.9375 -5.195312 1.671875 -4.554688 1.671875 -3.796875 C 1.671875 -3.046875 1.941406 -2.40625 2.484375 -1.875 C 3.023438 -1.351562 3.671875 -1.09375 4.421875 -1.09375 C 5.171875 -1.09375 5.8125 -1.351562 6.34375 -1.875 C 6.875 -2.40625 7.140625 -3.046875 7.140625 -3.796875 C 7.140625 -4.554688 6.875 -5.195312 6.34375 -5.71875 C 5.8125 -6.238281 5.171875 -6.5 4.421875 -6.5 Z M 4.421875 -6.5 "/></g></g></g><g fill="#060606" fill-opacity="1"><g transform="translate(172.548382, 124.909914)"><g><path d="M 1.53125 -6.546875 C 2.3125 -7.285156 3.269531 -7.65625 4.40625 -7.65625 C 5.550781 -7.65625 6.507812 -7.285156 7.28125 -6.546875 C 8.0625 -5.816406 8.453125 -4.90625 8.453125 -3.8125 C 8.453125 -2.71875 8.0625 -1.800781 7.28125 -1.0625 C 6.507812 -0.320312 5.550781 0.046875 4.40625 0.046875 C 3.269531 0.046875 2.3125 -0.320312 1.53125 -1.0625 C 0.757812 -1.800781 0.375 -2.71875 0.375 -3.8125 C 0.375 -4.90625 0.757812 -5.816406 1.53125 -6.546875 Z M 4.421875 -6.5 C 3.660156 -6.5 3.007812 -6.238281 2.46875 -5.71875 C 1.9375 -5.195312 1.671875 -4.554688 1.671875 -3.796875 C 1.671875 -3.046875 1.941406 -2.40625 2.484375 -1.875 C 3.023438 -1.351562 3.671875 -1.09375 4.421875 -1.09375 C 5.171875 -1.09375 5.8125 -1.351562 6.34375 -1.875 C 6.875 -2.40625 7.140625 -3.046875 7.140625 -3.796875 C 7.140625 -4.554688 6.875 -5.195312 6.34375 -5.71875 C 5.8125 -6.238281 5.171875 -6.5 4.421875 -6.5 Z M 4.421875 -6.5 "/></g></g></g><g fill="#060606" fill-opacity="1"><g transform="translate(187.3551, 124.909914)"><g><path d="M 6.203125 -6.46875 L 3.796875 -6.46875 L 3.796875 0 L 2.5 0 L 2.5 -6.46875 L 0.09375 -6.46875 L 0.09375 -7.625 L 6.203125 -7.625 Z M 6.203125 -6.46875 "/></g></g></g><g fill="#060606" fill-opacity="1"><g transform="translate(199.647155, 124.909914)"><g><path d="M 7.609375 0 L 6.328125 0 L 6.328125 -3.15625 L 2.28125 -3.15625 L 2.28125 0 L 1 0 L 1 -7.625 L 2.28125 -7.625 L 2.28125 -4.3125 L 6.328125 -4.3125 L 6.328125 -7.625 L 7.609375 -7.625 Z M 7.609375 0 "/></g></g></g><g fill="#060606" fill-opacity="1"><g transform="translate(214.247043, 124.909914)"><g/></g></g><g fill="#060606" fill-opacity="1"><g transform="translate(223.044675, 124.909914)"><g><path d="M 5.84375 0 L 4.4375 -2.3125 C 4.363281 -2.300781 4.25 -2.296875 4.09375 -2.296875 L 2.28125 -2.296875 L 2.28125 0 L 1 0 L 1 -7.625 L 4.09375 -7.625 C 5.0625 -7.625 5.816406 -7.394531 6.359375 -6.9375 C 6.898438 -6.488281 7.171875 -5.847656 7.171875 -5.015625 C 7.171875 -4.410156 7.03125 -3.894531 6.75 -3.46875 C 6.476562 -3.050781 6.09375 -2.742188 5.59375 -2.546875 L 7.296875 0 Z M 2.28125 -3.453125 L 4.09375 -3.453125 C 5.332031 -3.453125 5.953125 -3.960938 5.953125 -4.984375 C 5.953125 -5.972656 5.332031 -6.46875 4.09375 -6.46875 L 2.28125 -6.46875 Z M 2.28125 -3.453125 "/></g></g></g><g fill="#060606" fill-opacity="1"><g transform="translate(236.904309, 124.909914)"><g><path d="M 6.453125 -6.46875 L 2.28125 -6.46875 L 2.28125 -4.40625 L 6.015625 -4.40625 L 6.015625 -3.25 L 2.28125 -3.25 L 2.28125 -1.15625 L 6.578125 -1.15625 L 6.578125 0 L 1 0 L 1 -7.625 L 6.453125 -7.625 Z M 6.453125 -6.46875 "/></g></g></g><g fill="#060606" fill-opacity="1"><g transform="translate(250.034585, 124.909914)"><g><path d="M 7.609375 0 L 6.34375 0 L 2.28125 -5.46875 L 2.28125 0 L 1 0 L 1 -7.625 L 2.265625 -7.625 L 6.34375 -2.140625 L 6.34375 -7.625 L 7.609375 -7.625 Z M 7.609375 0 "/></g></g></g><g fill="#060606" fill-opacity="1"><g transform="translate(264.645357, 124.909914)"><g><path d="M 6.203125 -6.46875 L 3.796875 -6.46875 L 3.796875 0 L 2.5 0 L 2.5 -6.46875 L 0.09375 -6.46875 L 0.09375 -7.625 L 6.203125 -7.625 Z M 6.203125 -6.46875 "/></g></g></g><g fill="#060606" fill-opacity="1"><g transform="translate(276.9374, 124.909914)"><g><path d="M 5.921875 -1.71875 L 2.078125 -1.71875 L 1.34375 0 L 0.015625 0 L 3.375 -7.625 L 4.6875 -7.625 L 8.03125 0 L 6.65625 0 Z M 5.4375 -2.859375 L 4 -6.25 L 2.5625 -2.859375 Z M 5.4375 -2.859375 "/></g></g></g><g fill="#060606" fill-opacity="1"><g transform="translate(290.960329, 124.909914)"><g><path d="M 2.28125 -1.171875 L 5.59375 -1.171875 L 5.59375 0 L 1 0 L 1 -7.625 L 2.28125 -7.625 Z M 2.28125 -1.171875 "/></g></g></g><g fill="#060606" fill-opacity="1"><g transform="translate(302.762499, 124.909914)"><g><path d="M 3.5 -7.671875 C 4.488281 -7.671875 5.378906 -7.410156 6.171875 -6.890625 L 5.640625 -5.765625 C 4.859375 -6.234375 4.113281 -6.46875 3.40625 -6.46875 C 3.019531 -6.46875 2.71875 -6.398438 2.5 -6.265625 C 2.28125 -6.128906 2.171875 -5.929688 2.171875 -5.671875 C 2.171875 -5.421875 2.269531 -5.207031 2.46875 -5.03125 C 2.675781 -4.851562 2.929688 -4.722656 3.234375 -4.640625 C 3.535156 -4.554688 3.863281 -4.445312 4.21875 -4.3125 C 4.582031 -4.1875 4.914062 -4.050781 5.21875 -3.90625 C 5.519531 -3.769531 5.769531 -3.550781 5.96875 -3.25 C 6.164062 -2.945312 6.265625 -2.582031 6.265625 -2.15625 C 6.265625 -1.488281 6 -0.953125 5.46875 -0.546875 C 4.9375 -0.148438 4.242188 0.046875 3.390625 0.046875 C 2.816406 0.046875 2.253906 -0.0625 1.703125 -0.28125 C 1.160156 -0.5 0.6875 -0.796875 0.28125 -1.171875 L 0.84375 -2.28125 C 1.226562 -1.925781 1.648438 -1.648438 2.109375 -1.453125 C 2.566406 -1.265625 3.003906 -1.171875 3.421875 -1.171875 C 3.867188 -1.171875 4.21875 -1.25 4.46875 -1.40625 C 4.71875 -1.570312 4.84375 -1.800781 4.84375 -2.09375 C 4.84375 -2.351562 4.738281 -2.570312 4.53125 -2.75 C 4.332031 -2.925781 4.082031 -3.054688 3.78125 -3.140625 C 3.476562 -3.222656 3.144531 -3.320312 2.78125 -3.4375 C 2.425781 -3.5625 2.097656 -3.691406 1.796875 -3.828125 C 1.492188 -3.960938 1.238281 -4.175781 1.03125 -4.46875 C 0.832031 -4.769531 0.734375 -5.128906 0.734375 -5.546875 C 0.734375 -6.203125 0.984375 -6.71875 1.484375 -7.09375 C 1.992188 -7.476562 2.664062 -7.671875 3.5 -7.671875 Z M 3.5 -7.671875 "/></g></g></g></svg>